<svg height="464pt" viewBox="0 -48 464 464" width="464pt" xmlns="http://www.w3.org/2000/svg"><path d="m64 64c22.207031 0 22.207031 32 44.40625 32 22.203125 0 22.21875-32 44.433594-32s22.214844 32 44.433594 32c22.214843 0 22.214843-32 44.429687-32 22.21875 0 22.226563 32 44.441406 32 22.214844 0 22.214844-32 44.421875-32 22.210938 0 22.226563 32 44.457032 32 22.234374 0 22.242187-32 44.488281-32 22.25 0 22.242187 32 44.488281 32v272h-400z" fill="#a3d4f7"/><path d="m64 112c22.207031 0 22.207031 32 44.40625 32 22.203125 0 22.21875-32 44.433594-32s22.214844 32 44.433594 32c22.214843 0 22.214843-32 44.429687-32 22.21875 0 22.226563 32 44.441406 32 22.214844 0 22.214844-32 44.421875-32 22.210938 0 22.226563 32 44.457032 32 22.234374 0 22.242187-32 44.488281-32 22.25 0 22.242187 32 44.488281 32v224h-400z" fill="#60a2d7"/><path d="m464 368h-232c-116 0-116-368-232-368v368" fill="#e9cfb7"/><path d="m333.664062 178.351562c-.746093-.746093-1.632812-1.335937-2.609374-1.734374-1.957032-.808594-4.152344-.808594-6.109376 0-.976562.398437-1.863281.988281-2.609374 1.734374l-32 32c-3.03125 3.140626-2.988282 8.128907.097656 11.214844 3.085937 3.085938 8.074218 3.128906 11.214844.097656l18.351562-18.351562v44.6875c0 4.417969 3.582031 8 8 8s8-3.582031 8-8v-44.6875l18.34375 18.34375c3.140625 3.03125 8.128906 2.988281 11.214844-.097656 3.085937-3.085938 3.128906-8.074219.097656-11.214844zm0 0" fill="#d0dad9"/></svg>