<svg height="464pt" viewBox="0 -48 464 464" width="464pt" xmlns="http://www.w3.org/2000/svg"><path d="m64 160c22.207031 0 22.207031 32 44.40625 32 22.203125 0 22.21875-32 44.433594-32s22.214844 32 44.433594 32c22.214843 0 22.214843-32 44.429687-32 22.21875 0 22.226563 32 44.441406 32 22.214844 0 22.214844-32 44.421875-32 22.210938 0 22.226563 32 44.457032 32 22.234374 0 22.242187-32 44.488281-32 22.25 0 22.242187 32 44.488281 32v176h-400z" fill="#a3d4f7"/><path d="m64 208c22.207031 0 22.207031 32 44.40625 32 22.203125 0 22.21875-32 44.433594-32s22.214844 32 44.433594 32c22.214843 0 22.214843-32 44.429687-32 22.21875 0 22.226563 32 44.441406 32 22.214844 0 22.214844-32 44.421875-32 22.210938 0 22.226563 32 44.457032 32 22.234374 0 22.242187-32 44.488281-32 22.25 0 22.242187 32 44.488281 32v128h-400z" fill="#60a2d7"/><path d="m373.65625 66.34375c-3.125-3.121094-8.1875-3.121094-11.3125 0l-18.34375 18.34375v-44.6875c0-4.417969-3.582031-8-8-8s-8 3.582031-8 8v44.6875l-18.34375-18.34375c-3.140625-3.03125-8.128906-2.988281-11.214844.097656-3.085937 3.085938-3.128906 8.074219-.097656 11.214844l32 32c1.5 1.503906 3.539062 2.351562 5.664062 2.351562s4.164063-.847656 5.664063-2.351562l32-32c3.117187-3.128906 3.113281-8.191406-.015625-11.3125zm0 0" fill="#d0dad9"/><path d="m464 368h-232c-116 0-116-368-232-368v368" fill="#e9cfb7"/></svg>