<svg height="479pt" viewBox="0 -51 479.91664 479" width="479pt" xmlns="http://www.w3.org/2000/svg"><path d="m239.957031.457031c-114.875 0-208 93.125-208 208v80h96v-80c0-61.855469 50.144531-112 112-112s112 50.144531 112 112v80h96v-80c0-114.875-93.125-208-208-208zm0 0" fill="#ff5b42"/><path d="m239.957031 32.457031c-97.199219 0-176 78.800781-176 176v80h64v-80c0-61.855469 50.144531-112 112-112s112 50.144531 112 112v80h64v-80c0-97.199219-78.796875-176-176-176zm0 0" fill="#fce666"/><path d="m239.957031 64.457031c-79.527343 0-144 64.472657-144 144v80h32v-80c0-61.855469 50.144531-112 112-112s112 50.144531 112 112v80h32v-80c0-79.527343-64.46875-144-144-144zm0 0" fill="#60a2d7"/><g fill="#a3d4f7"><path d="m7.957031 329.347656c.09375 21.691406 17.753907 39.203125 39.449219 39.109375h132.6875c19.417969 0 35.238281-15.585937 35.53125-35.003906.289062-19.414063-15.058594-35.46875-34.464844-36.050781 1.660156-4.578125 2.515625-9.410156 2.527344-14.28125-.183594-20.726563-15.113281-38.382813-35.523438-42.015625-20.410156-3.628907-40.507812 7.796875-47.828124 27.191406-8.933594-4.101563-19.246094-3.917969-28.027344.5-8.777344 4.421875-15.070313 12.59375-17.09375 22.214844-2.570313-.523438-5.1875-.792969-7.808594-.800781-21.703125-.09375-39.367188 17.433593-39.449219 39.136718zm0 0"/><path d="m180.101562 376.457031h-132.695312c-17.160156.105469-33.019531-9.125-41.402344-24.097656-8.382812-14.972656-7.960937-33.320313 1.097656-47.894531 9.054688-14.574219 25.320313-23.070313 42.457032-22.183594 6.257812-15.085938 20.980468-24.925781 37.3125-24.933594 3.125-.003906 6.238281.363282 9.277344 1.085938 11.367187-20.148438 34.859374-30.140625 57.257812-24.351563 22.402344 5.785157 38.113281 25.90625 38.296875 49.039063-.007813 2.554687-.203125 5.101562-.59375 7.625 21.351563 5.398437 35.308594 25.894531 32.503906 47.738281-2.804687 21.84375-21.488281 38.148437-43.511719 37.972656zm-132.695312-78.222656c-17.183594 0-31.113281 13.929687-31.113281 31.113281 0 17.179688 13.929687 31.109375 31.113281 31.109375h132.695312c15.113282.085938 27.46875-12.023437 27.6875-27.132812.21875-15.113281-11.777343-27.574219-26.886718-27.929688-2.5625-.074219-4.929688-1.371093-6.375-3.488281-1.441406-2.117188-1.785156-4.796875-.921875-7.207031 1.351562-3.710938 2.046875-7.628907 2.058593-11.578125-.210937-16.847656-12.371093-31.167969-28.964843-34.101563-16.59375-2.9375-32.925781 6.347657-38.902344 22.101563-.777344 2.078125-2.382813 3.742187-4.433594 4.589844-2.050781.847656-4.363281.804687-6.382812-.117188-6.707031-3.089844-14.460938-2.960938-21.0625.347656-6.605469 3.3125-11.34375 9.449219-12.878907 16.675782-.878906 4.324218-5.09375 7.117187-9.417968 6.25-2.046875-.414063-4.128906-.625-6.214844-.632813zm0 0"/><path d="m432.511719 290.234375c-2.625.007813-5.238281.277344-7.808594.800781-2.023437-9.621094-8.316406-17.792968-17.097656-22.214844-8.777344-4.417968-19.089844-4.601562-28.023438-.496093-7.320312-19.398438-27.417969-30.824219-47.828125-27.195313-20.410156 3.632813-35.339844 21.289063-35.523437 42.015625.007812 4.871094.863281 9.703125 2.527343 14.28125-19.191406.863281-34.21875 16.824219-33.933593 36.03125.289062 19.210938 15.789062 34.710938 35 35h132.6875c21.597656 0 39.109375-17.507812 39.109375-39.109375 0-21.601562-17.511719-39.113281-39.109375-39.113281zm0 0"/><path d="m432.511719 376.457031h-132.699219c-22.019531.167969-40.691406-16.140625-43.492188-37.980469-2.800781-21.84375 11.152344-42.335937 32.503907-47.730468-2.265625-14.667969 2.027343-29.589844 11.742187-40.8125 9.710938-11.222656 23.863282-17.613282 38.703125-17.476563 18.425781.042969 35.414063 9.957031 44.511719 25.976563 3.042969-.722656 6.15625-1.089844 9.28125-1.085938 16.328125.015625 31.039062 9.855469 37.296875 24.933594 17.136719-.886719 33.398437 7.609375 42.457031 22.183594 9.058594 14.574218 9.476563 32.921875 1.09375 47.894531-8.382812 14.972656-24.242187 24.203125-41.398437 24.097656zm-93.242188-128c-19.238281-.078125-34.910156 15.425781-35.039062 34.664063.011719 3.949218.707031 7.867187 2.054687 11.578125l3.722656 10.398437-11.015624.320313c-15.109376.355469-27.109376 12.820312-26.890626 27.929687s12.578126 27.21875 27.6875 27.132813h132.722657c17.179687 0 31.109375-13.925781 31.109375-31.109375s-13.929688-31.113282-31.109375-31.113282c-2.097657.003907-4.1875.207032-6.242188.617188l-7.824219 1.597656-1.597656-7.8125c-1.535156-7.230468-6.273437-13.363281-12.878906-16.675781s-14.355469-3.441406-21.066406-.351563l-7.800782 3.578126-3.015624-8.046876c-5.175782-13.636718-18.230469-22.667968-32.816407-22.707031zm0 0"/></g></svg>