<svg height="464pt" viewBox="0 -104 464 464" width="464pt" xmlns="http://www.w3.org/2000/svg"><path d="m232 0c-128.128906 0-232 103.871094-232 232v24h96v-24c0-75.109375 60.890625-136 136-136s136 60.890625 136 136v24h96v-24c0-128.128906-103.871094-232-232-232zm0 0" fill="#ff5b42"/><path d="m232 32c-110.457031 0-200 89.542969-200 200v24h64v-24c0-75.109375 60.890625-136 136-136s136 60.890625 136 136v24h64v-24c0-110.457031-89.542969-200-200-200zm0 0" fill="#fce666"/><path d="m232 64c-92.785156 0-168 75.214844-168 168v24h32v-24c0-75.109375 60.890625-136 136-136s136 60.890625 136 136v24h32v-24c0-92.785156-75.214844-168-168-168zm0 0" fill="#60a2d7"/></svg>