<svg height="480pt" viewBox="0 -24 480 480" width="480pt" xmlns="http://www.w3.org/2000/svg"><path d="m240 0c-132.484375.148438-239.851562 107.515625-240 240 0 4.417969 3.582031 8 8 8s8-3.582031 8-8c0-123.710938 100.289062-224 224-224s224 100.289062 224 224c0 98.6875-80.800781 176-184 176s-184-77.3125-184-176c0-75.109375 60.890625-136 136-136s136 60.890625 136 136c0 48.601562-39.398438 88-88 88s-88-39.398438-88-88c0-22.089844 17.910156-40 40-40s40 17.910156 40 40c0 4.417969 3.582031 8 8 8s8-3.582031 8-8c0-30.929688-25.070312-56-56-56s-56 25.070312-56 56c0 57.4375 46.5625 104 104 104s104-46.5625 104-104c0-83.949219-68.050781-152-152-152s-152 68.050781-152 152c0 107.664062 87.847656 192 200 192s200-84.335938 200-192c-.148438-132.484375-107.515625-239.851562-240-240zm0 0" fill="#92aeba"/></svg>