<svg height="480pt" viewBox="0 0 480 480" width="480pt" xmlns="http://www.w3.org/2000/svg"><g fill="#92aeba"><path d="m328 240c0 48.601562-39.398438 88-88 88s-88-39.398438-88-88 39.398438-88 88-88 88 39.398438 88 88zm0 0"/><path d="m240 336c-53.019531 0-96-42.980469-96-96s42.980469-96 96-96 96 42.980469 96 96c-.058594 52.996094-43.003906 95.941406-96 96zm0-176c-44.183594 0-80 35.816406-80 80s35.816406 80 80 80 80-35.816406 80-80c-.046875-44.164062-35.835938-79.953125-80-80zm0 0"/><path d="m384 480c-132.484375-.148438-239.851562-107.515625-240-240 0-4.417969 3.582031-8 8-8s8 3.582031 8 8c.140625 123.652344 100.347656 223.859375 224 224 4.417969 0 8 3.582031 8 8s-3.582031 8-8 8zm0 0"/><path d="m240 336c-4.417969 0-8-3.582031-8-8s3.582031-8 8-8c123.652344-.140625 223.859375-100.347656 224-224 0-4.417969 3.582031-8 8-8s8 3.582031 8 8c-.148438 132.484375-107.515625 239.851562-240 240zm0 0"/><path d="m8 392c-4.417969 0-8-3.582031-8-8 .148438-132.484375 107.515625-239.851562 240-240 4.417969 0 8 3.582031 8 8s-3.582031 8-8 8c-123.652344.140625-223.859375 100.347656-224 224 0 4.417969-3.582031 8-8 8zm0 0"/><path d="m328 248c-4.417969 0-8-3.582031-8-8-.140625-123.652344-100.347656-223.859375-224-224-4.417969 0-8-3.582031-8-8s3.582031-8 8-8c132.484375.148438 239.851562 107.515625 240 240 0 4.417969-3.582031 8-8 8zm0 0"/></g></svg>