<svg height="480pt" viewBox="-32 0 480 480.1016" width="480pt" xmlns="http://www.w3.org/2000/svg"><path d="m273.386719 432c-4.417969 0-8 3.582031-8 8-.414063 13.324219-11.335938 23.910156-24.667969 23.910156s-24.253906-10.585937-24.667969-23.910156v-232c0-4.417969-3.582031-8-8-8s-8 3.582031-8 8v232c.3125 22.238281 18.429688 40.101562 40.667969 40.101562s40.355469-17.863281 40.667969-40.101562c0-4.417969-3.582031-8-8-8zm0 0" fill="#d29088"/><path d="m208.050781 40c-4.417969 0-8-3.582031-8-8v-24c0-4.417969 3.582031-8 8-8s8 3.582031 8 8v24c0 4.417969-3.582031 8-8 8zm0 0" fill="#d29088"/><path d="m208.050781 32c-114.875 0-207.9999998 93.125-207.9999998 208 0-17.671875 25.9101568-32 47.9999998-32 22.089844 0 40 14.328125 40 32 0-17.671875 17.910157-32 40-32 22.089844 0 40 14.328125 40 32 0-17.671875 17.910157-32 40-32 22.089844 0 40 14.328125 40 32 0-17.671875 17.910157-32 40-32 22.089844 0 40 14.328125 40 32 0-17.671875 17.910157-32 40-32 22.089844 0 48 14.328125 48 32 0-114.875-93.125-208-208-208zm0 0" fill="#ff5b42"/><path d="m217.371094 32.230469c-3.097656-.132813-6.191406-.230469-9.320313-.230469-3.128906 0-6.222656.097656-9.320312.230469-12.519531 2.464843-110.679688 26.96875-110.679688 191.769531v16c0-17.671875 17.910157-32 40-32 22.089844 0 40 14.328125 40 32 0-17.671875 17.910157-32 40-32 22.089844 0 40 14.328125 40 32 0-17.671875 17.910157-32 40-32 22.089844 0 40 14.328125 40 32v-16c0-164.800781-98.160156-189.304688-110.679687-191.769531zm0 0" fill="#fce666"/><path d="m216.394531 32.207031c-2.742187-.101562-5.542969-.207031-8.34375-.207031s-5.601562.105469-8.34375.207031c-3.410156 2.3125-31.65625 26.410157-31.65625 191.792969v16c0-17.671875 17.910157-32 40-32 22.089844 0 40 14.328125 40 32v-16c0-165.382812-28.246093-189.480469-31.65625-191.792969zm0 0" fill="#ff5b42"/></svg>